<svg id="visual" viewBox="0 0 540 960" width="540" height="960" xmlns="http://www.w3.org/2000/svg" xmlns:xlink="http://www.w3.org/1999/xlink" version="1.1"><rect x="0" y="0" width="540" height="960" fill="#108be9"></rect><path d="M0 258L12.8 261C25.7 264 51.3 270 77 292.3C102.7 314.7 128.3 353.3 154 349.2C179.7 345 205.3 298 231.2 280C257 262 283 273 308.8 293.8C334.7 314.7 360.3 345.3 386 361.5C411.7 377.7 437.3 379.3 463 369.7C488.7 360 514.3 339 527.2 328.5L540 318L540 0L527.2 0C514.3 0 488.7 0 463 0C437.3 0 411.7 0 386 0C360.3 0 334.7 0 308.8 0C283 0 257 0 231.2 0C205.3 0 179.7 0 154 0C128.3 0 102.7 0 77 0C51.3 0 25.7 0 12.8 0L0 0Z" fill="#74a2e8"></path><path d="M0 240L12.8 250.7C25.7 261.3 51.3 282.7 77 295.8C102.7 309 128.3 314 154 301.3C179.7 288.7 205.3 258.3 231.2 245.8C257 233.3 283 238.7 308.8 253.5C334.7 268.3 360.3 292.7 386 292.3C411.7 292 437.3 267 463 246.3C488.7 225.7 514.3 209.3 527.2 201.2L540 193L540 0L527.2 0C514.3 0 488.7 0 463 0C437.3 0 411.7 0 386 0C360.3 0 334.7 0 308.8 0C283 0 257 0 231.2 0C205.3 0 179.7 0 154 0C128.3 0 102.7 0 77 0C51.3 0 25.7 0 12.8 0L0 0Z" fill="#9bb8ee"></path><path d="M0 202L12.8 211.3C25.7 220.7 51.3 239.3 77 232.5C102.7 225.7 128.3 193.3 154 187.3C179.7 181.3 205.3 201.7 231.2 214.3C257 227 283 232 308.8 237.7C334.7 243.3 360.3 249.7 386 239C411.7 228.3 437.3 200.7 463 188C488.7 175.3 514.3 177.7 527.2 178.8L540 180L540 0L527.2 0C514.3 0 488.7 0 463 0C437.3 0 411.7 0 386 0C360.3 0 334.7 0 308.8 0C283 0 257 0 231.2 0C205.3 0 179.7 0 154 0C128.3 0 102.7 0 77 0C51.3 0 25.7 0 12.8 0L0 0Z" fill="#becff4"></path><path d="M0 124L12.8 119.7C25.7 115.3 51.3 106.7 77 107.5C102.7 108.3 128.3 118.7 154 131.7C179.7 144.7 205.3 160.3 231.2 169.5C257 178.7 283 181.3 308.8 175.3C334.7 169.3 360.3 154.7 386 152.2C411.7 149.7 437.3 159.3 463 160.5C488.7 161.7 514.3 154.3 527.2 150.7L540 147L540 0L527.2 0C514.3 0 488.7 0 463 0C437.3 0 411.7 0 386 0C360.3 0 334.7 0 308.8 0C283 0 257 0 231.2 0C205.3 0 179.7 0 154 0C128.3 0 102.7 0 77 0C51.3 0 25.7 0 12.8 0L0 0Z" fill="#dfe7fa"></path><path d="M0 52L12.8 61.7C25.7 71.3 51.3 90.7 77 89.3C102.7 88 128.3 66 154 61.5C179.7 57 205.3 70 231.2 77C257 84 283 85 308.8 82.2C334.7 79.3 360.3 72.7 386 66.7C411.7 60.7 437.3 55.3 463 53.3C488.7 51.3 514.3 52.7 527.2 53.3L540 54L540 0L527.2 0C514.3 0 488.7 0 463 0C437.3 0 411.7 0 386 0C360.3 0 334.7 0 308.8 0C283 0 257 0 231.2 0C205.3 0 179.7 0 154 0C128.3 0 102.7 0 77 0C51.3 0 25.7 0 12.8 0L0 0Z" fill="#ffffff"></path></svg>