<svg id="visual" viewBox="0 0 900 600" width="900" height="600" xmlns="http://www.w3.org/2000/svg" xmlns:xlink="http://www.w3.org/1999/xlink" version="1.1"><rect x="0" y="0" width="900" height="600" fill="#4FACF7"></rect><path d="M0 303L16.7 289.3C33.3 275.7 66.7 248.3 100 245.7C133.3 243 166.7 265 200 270.8C233.3 276.7 266.7 266.3 300 256.7C333.3 247 366.7 238 400 231.7C433.3 225.3 466.7 221.7 500 225.8C533.3 230 566.7 242 600 256.8C633.3 271.7 666.7 289.3 700 295.7C733.3 302 766.7 297 800 282.3C833.3 267.7 866.7 243.3 883.3 231.2L900 219L900 601L883.3 601C866.7 601 833.3 601 800 601C766.7 601 733.3 601 700 601C666.7 601 633.3 601 600 601C566.7 601 533.3 601 500 601C466.7 601 433.3 601 400 601C366.7 601 333.3 601 300 601C266.7 601 233.3 601 200 601C166.7 601 133.3 601 100 601C66.7 601 33.3 601 16.7 601L0 601Z" fill="#4facf7"></path><path d="M0 318L16.7 324.7C33.3 331.3 66.7 344.7 100 340.3C133.3 336 166.7 314 200 304.2C233.3 294.3 266.7 296.7 300 306.3C333.3 316 366.7 333 400 343.5C433.3 354 466.7 358 500 361.8C533.3 365.7 566.7 369.3 600 358C633.3 346.7 666.7 320.3 700 315.7C733.3 311 766.7 328 800 334.5C833.3 341 866.7 337 883.3 335L900 333L900 601L883.3 601C866.7 601 833.3 601 800 601C766.7 601 733.3 601 700 601C666.7 601 633.3 601 600 601C566.7 601 533.3 601 500 601C466.7 601 433.3 601 400 601C366.7 601 333.3 601 300 601C266.7 601 233.3 601 200 601C166.7 601 133.3 601 100 601C66.7 601 33.3 601 16.7 601L0 601Z" fill="#98c6fa"></path><path d="M0 420L16.7 415.2C33.3 410.3 66.7 400.7 100 396.2C133.3 391.7 166.7 392.3 200 390C233.3 387.7 266.7 382.3 300 387.5C333.3 392.7 366.7 408.3 400 410C433.3 411.7 466.7 399.3 500 395C533.3 390.7 566.7 394.3 600 396.5C633.3 398.7 666.7 399.3 700 403.5C733.3 407.7 766.7 415.3 800 415.5C833.3 415.7 866.7 408.3 883.3 404.7L900 401L900 601L883.3 601C866.7 601 833.3 601 800 601C766.7 601 733.3 601 700 601C666.7 601 633.3 601 600 601C566.7 601 533.3 601 500 601C466.7 601 433.3 601 400 601C366.7 601 333.3 601 300 601C266.7 601 233.3 601 200 601C166.7 601 133.3 601 100 601C66.7 601 33.3 601 16.7 601L0 601Z" fill="#cee2fd"></path><path d="M0 481L16.7 477.7C33.3 474.3 66.7 467.7 100 464.2C133.3 460.7 166.7 460.3 200 464.5C233.3 468.7 266.7 477.3 300 484C333.3 490.7 366.7 495.3 400 490.3C433.3 485.3 466.7 470.7 500 463.5C533.3 456.3 566.7 456.7 600 461.7C633.3 466.7 666.7 476.3 700 479C733.3 481.7 766.7 477.3 800 475C833.3 472.7 866.7 472.3 883.3 472.2L900 472L900 601L883.3 601C866.7 601 833.3 601 800 601C766.7 601 733.3 601 700 601C666.7 601 633.3 601 600 601C566.7 601 533.3 601 500 601C466.7 601 433.3 601 400 601C366.7 601 333.3 601 300 601C266.7 601 233.3 601 200 601C166.7 601 133.3 601 100 601C66.7 601 33.3 601 16.7 601L0 601Z" fill="#ffffff"></path></svg>